<svg width="42" height="42" viewBox="0 0 42 42" fill="none" xmlns="http://www.w3.org/2000/svg">
<path d="M17.5 5.25V8.75H8.75V33.25H33.25V24.5H36.75V35C36.75 35.4641 36.5656 35.9093 36.2374 36.2374C35.9093 36.5656 35.4641 36.75 35 36.75H7C6.53587 36.75 6.09075 36.5656 5.76256 36.2374C5.43437 35.9093 5.25 35.4641 5.25 35V7C5.25 6.53587 5.43437 6.09075 5.76256 5.76256C6.09075 5.43437 6.53587 5.25 7 5.25H17.5ZM30.9873 13.4872L21 23.4745L18.5255 21L28.5127 11.0128L22.75 5.25H36.75V19.25L30.9873 13.4872Z" fill="black"/>
</svg>
